<svg xmlns="http://www.w3.org/2000/svg" width="1200" height="630" viewBox="0 0 1200 630" fill="none">
  <rect width="1200" height="630" fill="#0C0B0A"/>
  <rect x="0.5" y="0.5" width="1199" height="629" fill="none" stroke="#2A2724"/>

  <!-- spine mark, scaled up -->
  <g transform="translate(96 96) scale(3.4)">
    <rect x="14.75" y="5" width="2.5" height="22" fill="#FF5A1F"/>
    <g fill="none" stroke="#F2EEE6" stroke-width="1.6">
      <rect x="3.6" y="9.4" width="3.6" height="3.6"/>
      <rect x="3.6" y="19" width="3.6" height="3.6"/>
      <rect x="24.8" y="9.4" width="3.6" height="3.6"/>
      <rect x="24.8" y="19" width="3.6" height="3.6"/>
      <path d="M7.2 11.2 C 11 11.2 11 13.2 14.75 13.2"/>
      <path d="M7.2 20.8 C 11 20.8 11 18.8 14.75 18.8"/>
      <path d="M17.25 13.2 C 21 13.2 21 11.2 24.8 11.2"/>
      <path d="M17.25 18.8 C 21 18.8 21 20.8 24.8 20.8"/>
    </g>
  </g>
  <text x="240" y="188" font-family="ui-monospace, 'SF Mono', Menlo, monospace" font-size="60" letter-spacing="14" fill="#F2EEE6">CKB-VIZ</text>

  <text x="96" y="360" font-family="system-ui, -apple-system, sans-serif" font-size="72" font-weight="600" fill="#F2EEE6">Read any CKB transaction</text>
  <text x="96" y="446" font-family="system-ui, -apple-system, sans-serif" font-size="72" font-weight="600" fill="#F2EEE6">as a flow of cells.</text>

  <text x="96" y="536" font-family="ui-monospace, 'SF Mono', Menlo, monospace" font-size="30" letter-spacing="2" fill="#A8A199">Decoded scripts · capacity · fee · lineage</text>

  <line x1="96" y1="574" x2="1104" y2="574" stroke="#2A2724"/>
  <text x="96" y="596" font-family="ui-monospace, 'SF Mono', Menlo, monospace" font-size="22" fill="#6E6760">ckb-viz.truthixify.dev</text>
</svg>
